<?xml version="1.0" encoding="utf-8"?>
<!-- Generator: Adobe Illustrator 16.0.0, SVG Export Plug-In . SVG Version: 6.00 Build 0)  -->
<!DOCTYPE svg PUBLIC "-//W3C//DTD SVG 1.1//EN" "http://www.w3.org/Graphics/SVG/1.1/DTD/svg11.dtd">
<svg version="1.1" id="Layer_1" xmlns="http://www.w3.org/2000/svg" xmlns:xlink="http://www.w3.org/1999/xlink" x="0px" y="0px"
	 width="1066.665px" height="637.9px" viewBox="0 0 1066.665 637.9" enable-background="new 0 0 1066.665 637.9"
	 xml:space="preserve">
<path fill="none" stroke="#B3B3B3" stroke-miterlimit="10" d="M68.456,318.01c0,0-9.393-9.392-9.01-14.376
	c0.384-4.984,2.492-4.984,6.326-9.393c3.834-4.408,3.643-6.325,4.218-8.625c0.575-2.3-1.725-0.575-2.684-5.75
	c-0.959-5.176,3.641-12.076,5.941-12.842c2.3-0.767,23.77-5.368,36.803-18.977s33.735-17.826,44.661-31.435
	c10.925-13.609,9.2-4.601,13.61-9.968c4.408-5.367,8.049-8.434,12.842-12.651c4.792-4.216,23.193-13.801,26.261-25.11
	c1.533-3.258,4.599-0.575,5.366,0s5.75-0.294,6.134-1.585c0.383-1.29-1.534-5.891,0.958-7.041c2.492-1.15,12.65,8.434,15.909,6.709
	s4.6-3.259,7.476-6.805c2.875-3.545,9.008-7.379,9.201-9.104c0.192-1.725,3.834-0.766,4.984-0.958
	c1.15-0.192,8.241-0.958,9.966-3.259s0.959-3.259,0-8.625c0.766-2.492,3.833-0.766,6.517-1.533c2.684-0.767,4.984-4.408,7.284-4.6
	c2.3-0.192,13.801-0.959,17.251-0.767c3.45,0.192,3.067-3.833,6.134-4.217c3.066-0.384,11.5,7.667,12.842,6.709
	s-0.958-4.984,0.767-5.368c1.725-0.383,4.601-2.108,6.326-2.875s-6.901,5.175-1.725,9.009c5.175,3.833,7.283,9.583,13.417,12.842
	c6.134,3.259,11.117,3.067,13.034,1.534c1.917-1.534,1.149-3.833,4.408-4.217c3.259-0.384,6.134-1.342,7.285-3.643
	c1.15-2.3,3.833-0.958,10.158,0.767c6.326,1.725,39.486,11.117,49.454,11.117c9.967,0,11.117,3.643,21.659,0.384
	s7.476-1.534,10.542-3.259c3.067-1.725,0.768-2.492,2.875-2.875c2.108-0.383,6.708,2.875,10.159,2.492
	c3.45-0.383,33.736-3.642,38.719-3.066c4.983,0.575,6.901,5.942,9.393,6.517c2.491,0.575,9.2,0.192,13.608-2.492
	c4.408-2.684,7.476-3.642,10.351-4.792c2.876-1.15,5.176-11.118,17.826-13.609c12.651-2.492,15.334-1.534,22.81-1.15
	c7.476,0.383,11.117-2.876,14.376-6.709c3.26-3.833,6.71-9.776,3.26-10.351c-3.45-0.575-10.351,1.15-12.651,0
	c-2.3-1.15-6.516-3.45-3.45-4.216c3.066-0.767,14.369,1.341,17.535,1.917c3.166,0.575,7.191-1.341,12.367,0.192
	c5.175,1.533,9.392,1.917,11.116,2.492c1.726,0.575,3.066,1.917,3.45,2.684c0.385,0.767,4.025-0.576,5.942,0.383
	c1.918,0.958,1.534,6.517,2.492,6.708c0.958,0.192,0.958-2.875,2.684-3.833c1.725-0.958,2.491,3.066,8.434,4.6
	s16.485,8.817,37.569,5.942c21.084-2.875,23.575-1.342,32.585-2.3s15.336-7.858,22.62-12.076c7.283-4.217,15.718-1.15,24.151,1.917
	c8.434,3.066,30.476,12.076,39.102,12.842c8.625,0.767,8.818,4.024,6.134,7.092c-2.684,3.067-1.149,9.585,2.301,10.543
	s4.217-2.3,4.601-5.176c0.383-2.875,0.19-1.917,2.107-1.15s1.342,3.067,3.643,4.025c2.3,0.958,3.45,2.108,6.708,0.191
	c3.259-1.917,2.877-3.259,5.368-4.025c2.49-0.767,6.325-1.342,5.558-1.534c-0.767-0.191-5.941-2.491-8.434-2.683
	c-2.492-0.192-15.335-1.725-15.718-3.258c-0.383-1.534,1.533-2.493,4.601-1.534c3.067,0.958,10.352,2.492,14.567,3.258
	c4.217,0.767,9.009,2.493,13.034,2.684s15.717-0.576,18.784,0.383s18.21,16.868,23.386,19.743
	c5.175,2.875,27.792,24.728,33.16,29.136c5.367,4.408,12.268,12.267,18.593,15.334c6.326,3.067,9.393,4.217,12.076,4.6
	c2.683,0.384,1.917,4.434,0,4.901s-4.409-1.45-7.093-3.559c-2.683-2.109-10.542-7.092-13.608-7.476
	c-3.067-0.383-5.177-0.575-6.71-0.958c-1.533-0.384,1.727-3.067-1.916-5.75s-4.409-2.301-7.284-3.259s-5.176-4.025-7.858-4.025
	c-2.684,0-5.175,1.725-5.559,2.875c-0.384,1.15-6.71,2.492-6.518,0s3.833-4.217,2.3-5.175s-4.599-1.15-4.982,0.192
	c-0.385,1.342,0,4.791,0.383,5.559c0.383,0.767-3.834-2.108-5.176-4.217c-1.342-2.109-2.3-0.383-5.75-0.767
	c-3.45-0.384-3.26-0.192-5.367,0.383c-2.108,0.575,0.192,1.725,1.533,3.834c1.342,2.108-0.19,4.6,0.575,5.75
	c0.767,1.15,1.149-1.341,3.066-2.875s0.767-4.792,2.492-4.984s5.941,3.45,7.283,7.476c1.343,4.025,3.642,5.942,2.876,7.284
	c-0.767,1.341-4.984,0.574-5.176,3.066s4.409,11.31,11.692,13.418c7.284,2.108,4.218-2.684,4.218-2.684s-1.15-0.192-0.768-1.342
	c0.384-1.15,4.218,0.959,4.218,2.492s-1.341,6.708,0,7.284c1.341,0.575,3.066-0.192,5.366-0.192s3.834,0.192,3.643,2.875
	c-0.192,2.684,0.958,4.217,4.025,5.75c3.066,1.533,4.023,2.491,7.858,1.341c3.834-1.15,6.709-0.958,7.092-2.875
	c0.384-1.917,2.109-0.958-2.683-3.642c-4.793-2.684-5.177-4.792-7.859-5.559c-2.684-0.767-3.832-0.575-5.941-2.3
	s-4.601,0.767-6.518-0.958s-8.816-7.284-8.434-9.009c0.383-1.725,2.109-2.3,6.9-2.108s15.717,9.393,18.784,11.118
	s3.642,1.342,6.134,1.917c2.492,0.575,6.709,4.217,5.367,6.326c-1.343,2.108-3.835,2.108-3.067,3.066
	c0.767,0.959,0.766,0.575,3.45,1.15c2.685,0.575,4.409-2.3,4.792,2.108c0.384,4.409-0.191,4.983,0.575,7.092
	c0.768,2.108,1.534,0.383,3.067-1.15s1.916,1.342,3.258,1.342c1.343,0,1.534-1.533,2.492-3.45c0.958-1.917,2.685-3.451,5.751-3.643
	c3.066-0.191,3.833-0.958,6.133-1.917c2.301-0.958,0.768-1.917,1.343-4.025c0.575-2.108,2.875-1.149,4.983-0.766
	c2.107,0.383,3.066,0.958,5.367,1.15c2.3,0.191,2.875-0.767,4.6,1.15c1.726,1.917,2.685,3.066,1.15,6.133
	c-1.534,3.067-2.109,3.833-2.492,5.176c-0.383,1.342-2.491-1.342-3.258-3.067c-0.768-1.725-1.15-1.725-3.643-0.767
	s-2.684,1.725-3.45,3.067c-0.767,1.341-2.683,0.958-2.3,2.875s-0.192,2.492,1.725,2.684s0.766-1.534,2.108-2.684
	c1.342-1.15,0.958,1.917,1.725,3.834c0.768,1.917,2.109,2.684,4.218,1.15s2.876-5.559,5.367-6.709s4.025-1.725,5.75-1.15
	c1.726,0.575,4.217-0.384,2.684-2.109s-4.791-2.875-4.983-5.367s2.3-3.259-1.342-5.559c-3.643-2.3-4.216,0.575-7.858-1.725
	c-3.643-2.3-5.559-0.191-8.051-2.108s-4.217-2.876-6.518-4.217c-2.3-1.342-6.325-4.025-8.051-4.408
	c-1.725-0.384-4.599-4.984,0.768-5.942c2.875-0.191,3.832,3.642,5.941,5.175s8.627,5.558,11.885,6.9s9.967,4.025,13.608,4.6
	c3.643,0.575,13.418,2.684,17.443,5.559c4.025,2.875,11.885,11.884,14.951,26.452c1.533,6.325,11.501,10.35,15.334,11.692
	c3.833,1.342,10.927,6.518,12.843,6.901s-8.625-0.575-10.926,0.767c-2.3,1.341-4.216,1.917-6.9,1.15s-2.875,1.726-4.601,0.958
	c-1.725-0.767-0.19-2.3-1.725-3.642s-5.751-0.767-8.243-0.575c-2.492,0.192-3.066-2.683-4.6-3.066c-1.533-0.384-2.302-3.45-4.218,0
	s-3.641,4.983-5.366,5.942c-1.725,0.958-4.409,1.725-5.942,0.383c-1.533-1.341-2.874-3.833-4.983-4.6s-2.492,1.342-3.067,3.833
	c-0.575,2.492-1.341,3.45-2.683,5.367c-1.342,1.917-0.385,0.958-3.643,4.025c-3.258,3.067-4.216,3.834-6.708,4.601
	s-2.109,4.217-2.685,5.559c-0.575,1.342-4.6-3.45-6.517-2.684s-7.093,2.109-8.435,3.45c-1.341,1.342-2.874,4.217-1.916,4.601
	c0.958,0.383-4.219,0.766-7.859,3.642c0,0-6.132,0-8.241,1.15c-2.109,1.15,0.383,2.492-0.768,3.067
	c-1.149,0.575-3.449,2.301-4.983,2.492s-5.75,1.341-7.667,0.767c-1.917-0.575-3.643-2.876-4.601-0.958
	c-0.958,1.917-1.342,3.259-1.917,4.217s-14.758,4.025-17.25,2.3s-3.835-3.833-5.942-3.833c-2.108,0-3.833-3.45-5.75-3.258
	c-1.918,0.191-1.533,6.017,0.191,7.608c1.726,1.592-0.384,2.359-1.917,2.742c-1.533,0.383-3.834,0.576-4.792,1.725
	c-0.958,1.15-4.793,2.492-8.051,0s-4.217-6.133-6.517-6.325c-2.3-0.192-4.408-0.192-4.025,4.217
	c0.383,4.408,1.726,7.667,0.958,9.009c-0.767,1.343-0.573,5.175-4.408,3.259c-3.834-1.916-7.284-0.575-9.01-2.301
	c-1.725-1.725-0.574-6.325-2.875-5.941c-2.3,0.383-1.15,2.491-2.683,4.601c-1.533,2.108-7.668,7.475-10.351,8.816
	c-2.684,1.342-4.6-0.766-7.284,1.534c-2.684,2.3-3.644-2.875-6.134-2.492c-2.491,0.383-1.342-3.833-3.642-4.025
	c-2.3-0.191-6.9,1.15-9.775,0.192c-2.875-0.959-5.176-2.685-8.051-2.3c-2.875,0.383-3.067-2.876-4.792-1.918
	c-1.726,0.958-2.492,2.491-4.218,0.958c-1.725-1.533-1.532-2.107-3.066-3.641c-1.534-1.534-3.065,0.383-3.45-2.301
	c-0.384-2.684-0.576-3.258-1.534-5.942s-1.917-3.642-4.6-6.9c-2.684-3.259-6.134-6.901-8.434-6.326
	c-2.301,0.575-3.066,2.875-4.408,3.067c-1.343,0.191-10.351-0.576-12.651,7.667c-0.959,4.6-3.45,3.066-4.6,3.45
	c-1.15,0.383-5.943,4.792-7.093,5.75c-1.15,0.959-1.343,1.725-1.917,4.409c-0.575,2.683-1.15,3.066-2.301,3.45
	c-1.149,0.383-4.6,1.726-1.149,4.025s2.3,2.3,1.149,4.601c-1.149,2.3,1.344,2.49,2.685,2.683s2.106,1.15-2.109,5.176
	s-4.791,2.683-6.517,3.833c-1.725,1.15-3.834,0.383-5.559-2.3c-1.726-2.684-4.984-3.066-6.326-0.959
	c-1.341,2.108,1.534,2.684,1.534,5.368c0,2.683-0.192,5.941-0.959,7.858c-0.766,1.917-2.683,1.342-3.833,3.642
	c-1.15,2.301-1.15,4.024-1.15,5.941c0,1.918-5.366,1.726-4.025,4.601c1.342,2.875,7.476,5.75,7.476,8.817s-3.067,9.009-7.667,9.393
	c-4.601,0.384-13.417-2.493-19.167,3.258c-2.301,2.875-3.066,4.218-3.45,5.56c-0.385,1.341-4.41-0.385-5.56,1.341
	c-1.15,1.725-0.96,2.492-2.876,5.75c-1.916,3.26-3.065,5.368-3.258,7.094c-0.192,1.725,0.384,1.341-1.533,3.832
	c-1.917,2.493-4.6,2.875-7.476,4.984c-2.875,2.109-5.175,1.726-6.518,2.491c-1.342,0.769-1.149,1.15-1.149,2.875
	c0,1.726-0.768,4.025-2.875,4.984c-2.108,0.959-5.942-0.19-6.9,0.959c-0.959,1.15-2.685,2.301-4.218,3.45
	c-1.533,1.15-1.342,1.532-4.025,2.491c-2.683,0.959-2.299,0.766-4.791,2.301c-2.492,1.534-1.151,0.574-2.685,2.875
	c-1.533,2.3-0.19,2.683-4.216,2.491s-5.367-2.022-5.367,0.043s0.573,4.749-0.192,6.282c-0.766,1.534-3.642,4.409,0.192,7.668
	c3.833,3.258,2.492,6.325,1.342,7.283c-1.15,0.959-3.45-1.916-5.367-2.491s-0.958,0.384-2.301,1.149
	c-1.342,0.767-4.6,1.726-7.476-0.959c-2.875-2.682-4.216-5.174-5.558-8.432c-1.343-3.26-3.068-3.644-6.135-2.494
	c-3.066,1.15-5.558,1.344-6.517-4.407c-2.109-4.984-6.9-3.643-7.667-4.409c-0.768-0.766-9.585-5.941-7.668-10.351
	s4.791-6.709-0.575-6.709c0,0-2.875,2.301-4.6,2.493c-1.726,0.19-7.092,1.341-9.392,3.066c-2.301,1.725-1.916,4.409-3.45,7.284
	s-2.875,2.491-5.367,3.257c-2.492,0.769-2.302,2.492-4.793,6.325c-2.491,3.835-6.133,7.094-9.583,10.735
	c-3.45,3.641-6.517,6.708-6.709,9.967s-0.384,3.068-2.109,4.984c-1.725,1.916-8.625,3.834-8.625,3.834
	c-3.45,1.15-6.325,1.15-9.584,0c-3.258-1.15-4.026-3.644-5.558-3.644c-1.534,0-0.959,2.875-3.834,2.875s-4.216-2.874-7.283-3.832
	c-3.067-0.959-4.026-1.725-7.284,0.575c-3.259,2.3-9.201,1.148-10.542,1.532c-1.342,0.384-1.917,2.3-6.708-0.767
	c0,0-11.31-0.574-13.418,4.122s-2.683,11.979-2.108,14.662c0.575,2.685,3.066,5.177,3.45,7.285c0.383,2.107-0.193,2.3-1.15,4.983
	c-0.959,2.683-1.917,3.066,0.958,5.175c2.875,2.108,2.683,1.533,2.492,6.709c-0.192,5.175-2.875,6.519,0.191,9.009
	c3.067,2.491,3.259,1.916,2.492,5.941s-4.217,4.793-3.258,7.668c0.958,2.875,3.258,0.383,5.558,3.45s2.492,9.584,0.575,11.309
	c-1.917,1.726-5.174,4.601-7.093,5.176c-1.916,0.574-4.216-1.916-7.091-3.834c-2.875-1.917-8.625-1.725-11.693,0.575
	c-3.067,2.301-7.477,3.833-9.008,8.626c-1.534,4.792-1.534,5.174-2.492,7.283s-0.958,2.491,0.767,4.025s2.875,3.068,1.533,4.409
	c-1.342,1.341-4.024,2.875-1.917,3.833c2.109,0.958,4.217,1.917,1.342,4.218c-2.875,2.3-5.175,2.3-5.75,4.601
	c-0.575,2.3,0.767,3.45-2.108,4.982c-2.875,1.533-5.175,2.108-6.9,4.025s-2.494,4.601-5.176,4.025
	c-2.684-0.575-3.641-4.217-6.709-3.642c-3.066,0.574-36.418,4.791-36.61,2.683c-0.192-2.108,7.093-5.559,3.45-6.708
	c-3.642-1.15-8.049,0.959-9.967-2.684c-1.916-3.643-3.45-6.708-0.958-7.476c2.492-0.767,5.367-0.19,4.983-1.725
	c-0.383-1.534-4.408-0.96-6.708-1.534c-2.3-0.575-4.983-0.575-7.859-1.15c-2.875-0.575-2.3-1.534-3.259-5.176
	c-0.958-3.641-3.259-8.433-5.941-12.458c-2.685-4.025-4.025-7.092-6.326-7.858c-2.3-0.768-1.15-3.45,1.916-5.368
	c3.067-1.917,2.3-2.492,5.175-5.75c2.875-3.258,4.601-3.451,7.86-4.218c3.258-0.766,7.091-4.6,1.725-6.9
	c-5.368-2.3-4.025,0.96-5.368,0.385c-1.342-0.575-3.642-2.109-5.367-0.385c-1.725,1.726,0,4.601-1.15,6.326
	c-1.15,1.725-3.257,1.533-5.75,2.3c-2.491,0.767-4.601,2.108-6.708-0.575c-2.108-2.683-2.3-2.492-5.75-3.45
	s-4.983-1.341-5.367-5.559c-0.383-4.217,2.684-6.709-0.958-7.667c-3.643-0.958-4.217-0.191-4.983,4.792
	c-0.767,4.983-0.959,7.285-2.492,8.817c-1.533,1.533-7.284,4.025-10.351,3.259c-3.067-0.768-7.858-4.409-9.393-5.942
	c-1.533-1.533-8.625-2.107-3.066-4.217c5.559-2.108,4.982-2.684,8.051-3.834c3.066-1.15,4.982,0.575,6.9-1.533
	c1.916-2.107,1.341-4.983,0.575-7.858c-0.767-2.875-3.834-2.493-6.9-2.685c-3.067-0.19-5.175-3.448-4.217-7.666
	c0.958-4.217,1.533-3.258,3.258-8.626c1.725-5.367,1.725-9.2,1.917-12.268c0.192-3.067,2.683-2.875,3.45-5.75
	s-2.3-1.916-0.575-4.983s1.917-2.685,3.45-4.793c1.533-2.107,2.874-6.709-1.533-8.817c-4.409-2.107-6.325-6.9-7.285-7.476
	c-0.958-0.574-4.982-4.6-6.9-3.45c-1.916,1.15-4.982,0.958-6.9-0.575c-1.916-1.532-2.109,1.343-4.791,0.768
	c-2.685-0.575-3.259-0.576-4.792,0.383s-3.642,1.15-6.133,0.385c-2.492-0.768-5.175,1.341-6.9,2.3
	c-1.725,0.958-3.259,1.725-3.259,1.725s-1.533-3.834-2.683-5.942c-1.15-2.107-4.983-4.6-5.175-6.708
	c-0.192-2.109-0.192-3.45-2.493-4.601c-2.3-1.149-4.025-1.917-5.175-2.3c-1.15-0.384-2.875-3.067-4.6-2.3
	c-1.725,0.766-1.916,3.065-4.025,2.683c-2.108-0.383-1.916-1.727-4.6-1.342c-2.683,0.384-3.257,1.149-4.025,2.684
	c-0.766,1.533-1.15,2.684-2.491,3.834c-1.342,1.149-2.491-1.15-3.834,1.149c-1.341,2.301,1.15,3.067-0.958,4.793
	c-2.108,1.725-2.874,4.791-6.518,4.025c-3.641-0.768-6.135-1.344-7.667,0.766c-1.534,2.109-1.725,1.15-4.217,0.192
	s-4.408-0.768-8.051,0.574c-3.642,1.343-5.749,1.918-7.092,2.876c-1.341,0.958-3.066,1.148-4.216-3.067
	c-1.15-4.217-1.343-4.983-1.725-8.816c-0.384-3.835,0.575-8.051-1.534-9.201c-2.108-1.149-9.008,1.726-11.884,0
	c-2.875-1.725-3.833-3.45-6.708-4.025c-2.875-0.575-5.367-0.384-9.01-2.684c-3.641-2.301-4.216-2.108-5.366-5.941
	c-1.15-3.835-2.109-5.177-3.834-9.01s-4.6-5.176-6.708-3.259c-2.108,1.918-1.726,7.093-4.983,6.901
	c-3.259-0.192-4.6-1.343-4.6-4.025c0-2.684-2.684-9.968-7.092-12.076c-4.409-2.108-4.983-4.408-12.076-0.383
	c-2.3,0.575,0.001-2.492-0.958-4.601c-0.959-2.109-0.959-3.068-3.642-6.135c-2.683-3.065-5.75-2.107-5.75-4.982
	c0-2.876,1.15-5.942-2.492-7.668c-3.641-1.725-9.775,1.344-12.267,1.726c-2.492,0.384-5.56-1.342-8.625-4.217
	c-3.067-2.875-10.735-4.984-14.568-6.518c-3.833-1.533-8.624-1.342-11.692-4.025c-3.066-2.683-5.176-5.942-3.833-12.075
	c0.958-3.259,3.643-0.192,5.175-2.108c1.533-1.917,1.149-3.45,3.067-5.175c1.916-1.726,3.259-3.45,5.366-5.176
	c2.109-1.725,3.259-2.3,4.409-4.217c1.15-1.918,3.066-0.768,5.559-0.959s3.833,2.876,5.175,2.301s3.067-1.15,3.642-3.835
	c0.575-2.683,0.766-6.325,0-9.966c-0.767-3.643,0.958-4.984,2.108-6.135c1.15-1.15,4.024-1.534,0.192-4.791
	C69.415,324.144,67.497,322.995,68.456,318.01z"/>
<path fill="none" stroke="#B3B3B3" stroke-miterlimit="10" d="M315.722,566.427c0,0-2.492,1.15-3.45,1.726
	c-0.958,0.574-1.725,0.382-0.958,2.49c0.767,2.109-1.342,4.601,4.408,3.067s4.984,0.476,4.984,0.476s0-5.074-1.725-6.033
	C317.256,567.192,317.722,565.469,315.722,566.427z"/>
<path fill="none" stroke="#B3B3B3" stroke-miterlimit="10" d="M324.731,563.742c0,0-5.838,1.15-8.861-1.149
	c-3.023-2.301-2.449-1.149-2.832-3.642s1.063-2.492,2.832-4.217c1.769-1.726,2.794-2.877,4.87-1.918
	c2.075,0.96,4.375,1.726,3.992,4.218C324.347,559.526,327.032,559.717,324.731,563.742z"/>
<path fill="none" stroke="#B3B3B3" stroke-miterlimit="10" d="M422.689,97.672c0,0-3.638,1.82,0,4.321
	c3.638,2.501,2.957,0.91,6.14,0c3.183-0.91,4.319-2.957,7.276-2.957c2.958,0,4.549,0,4.094-2.729
	c-0.455-2.729-3.866-1.592-7.05-2.047c-3.184-0.455-5.23,0.683-6.367,2.047C425.645,97.672,424.28,98.354,422.689,97.672z"/>
<path fill="none" stroke="#B3B3B3" stroke-miterlimit="10" d="M479.895,68.923c0,0-3.738-3.163,2.013-8.338
	c5.75-5.176,3.45-4.601,5.75-5.176c2.3-0.575,5.175-0.862,8.05-2.3s4.313-0.288,7.763-2.875c3.45-2.587,4.888-4.025,7.763-5.463
	c2.875-1.438,8.338-1.15,11.213-2.012c2.876-0.863,5.463-2.588,9.201-2.013c3.737,0.575,3.737,2.013,6.9,1.725
	s7.188-0.288,6.9,0.862c-0.287,1.15-3.737,0-8.338,0.863c-4.601,0.862-4.313,0.575-7.763,2.013c-3.45,1.438-6.901,0.862-8.339,1.438
	c-1.438,0.575-1.725,2.587-4.6,4.025c-2.876,1.438-4.601-0.863-7.763,0.862s-7.188,6.613-9.201,8.051
	c-2.013,1.438-5.75-0.575-9.201,1.15S482.914,68.348,479.895,68.923z"/>
<path fill="none" stroke="#B3B3B3" stroke-miterlimit="10" d="M590.015,45.059c0,0,4.219-2.339,6.71-4.428
	c2.49-2.089,4.406-1.514,5.94-2.855c1.534-1.342,0.385-2.492,2.109-3.259c1.726-0.767,4.409,0,3.45-2.875
	c-0.959-2.875-4.025-1.342-5.367-2.108s-3.258,0-4.983,1.917c-1.725,1.917-6.519,6.708-7.859,8.434S587.14,44.675,590.015,45.059z"
	/>
</svg>
